<svg id="Group_48" data-name="Group 48" xmlns="http://www.w3.org/2000/svg" xmlns:xlink="http://www.w3.org/1999/xlink" width="60.699" height="38.484" viewBox="0 0 60.699 38.484">
  <defs>
    <linearGradient id="linear-gradient" x2="1" y2="1" gradientUnits="objectBoundingBox">
      <stop offset="0" stop-color="#0e9548"/>
      <stop offset="1" stop-color="#26a9e0"/>
    </linearGradient>
    <clipPath id="clip-path">
      <rect id="Rectangle_214" data-name="Rectangle 214" width="60.699" height="38.484" fill="url(#linear-gradient)"/>
    </clipPath>
  </defs>
  <g id="Group_47" data-name="Group 47" clip-path="url(#clip-path)">
    <path id="Path_696" data-name="Path 696" d="M60.7,31.794a1.278,1.278,0,0,1-1.251.625c-.691-.018-1.383.016-2.073-.011-.451-.017-.643.093-.7.6A6.073,6.073,0,0,1,44.584,33c-.059-.467-.216-.59-.656-.589q-10.011.015-20.023,0c-.448,0-.593.144-.663.593a6.07,6.07,0,0,1-12.074.067c-.055-.58-.274-.669-.766-.661-1.362.023-2.725.012-4.087.007a2.083,2.083,0,0,1-2.294-2.266c-.012-.562.258-1.279-.143-1.648s-1.1-.094-1.664-.122c-.394-.02-.792.014-1.184-.019A1,1,0,0,1,0,27.291a.983.983,0,0,1,1.062-.967q4.472-.021,8.945,0a1.019,1.019,0,1,1,.01,2.035q-1.628.049-3.258.007c-.515-.013-.7.161-.687.681.034,1.5-.126,1.3,1.294,1.307,1.185.009,2.37-.01,3.554.008a.738.738,0,0,0,.768-.491A5.827,5.827,0,0,1,17.2,26.34a5.853,5.853,0,0,1,5.508,3.541.746.746,0,0,0,.773.479q9.212-.012,18.423,0c.5,0,.638-.181.634-.659-.02-2.054,0-4.107-.011-6.161a1.16,1.16,0,0,1,.46-1.09.975.975,0,0,1,1.487.527,3.076,3.076,0,0,1,.1.877c.009,1.955,0,3.91.01,5.865,0,.194-.11.5.188.545.235.036.259-.26.343-.424a6.072,6.072,0,0,1,11,0,.8.8,0,0,0,.816.518c1.818.014,1.818.025,1.818-1.777,0-.553-.021-1.107.006-1.658.022-.448-.166-.6-.592-.577a3.487,3.487,0,0,1-1.4-.189,3.02,3.02,0,0,1-2.1-2.81,14.811,14.811,0,0,1,0-1.953,1.06,1.06,0,0,1,1.216-1.136c.691-.008,1.382,0,2.073-.006.166,0,.395.088.48-.116.072-.172-.081-.334-.174-.482A2.939,2.939,0,0,0,55.69,18.22c-3.515-.028-7.03-.007-10.544-.017-.4,0-.586.135-.566.547a2.456,2.456,0,0,1-.051.588,1,1,0,0,1-1.988-.107c-.015-.2-.007-.395-.007-.592q0-7.909,0-15.817c0-.838,0-.839-.857-.839H6.9c-.817,0-.82,0-.82.817q0,7.849,0,15.7a3.334,3.334,0,0,1-.088,1,.932.932,0,0,1-1.021.718.929.929,0,0,1-.91-.787,2.473,2.473,0,0,1-.034-.589q0-8.264,0-16.528A2.034,2.034,0,0,1,6.364,0H42.2A2.106,2.106,0,0,1,44.58,2.31a7.59,7.59,0,0,1,0,1.006c-.061.587.2.735.752.728,2.073-.026,4.147,0,6.22-.013,2.462-.015,4.557,2,4.132,5.177a.715.715,0,0,1-.238.529c-.5.32-.4.735-.276,1.2q.609,2.349,1.177,4.708a.884.884,0,0,0,.7.747A5.1,5.1,0,0,1,60.7,20.3ZM49.44,16.16c1.46,0,2.92-.011,4.379.006.443.005.548-.149.44-.564q-.644-2.49-1.253-4.989a.538.538,0,0,0-.615-.48q-3.61.013-7.22,0c-.433,0-.6.154-.593.587.014,1.6.017,3.2,0,4.794-.006.489.179.662.661.655,1.4-.019,2.8-.007,4.2-.007M17.2,36.418a4.019,4.019,0,1,0-4.02-3.995,3.945,3.945,0,0,0,4.02,3.995m33.431,0a4.019,4.019,0,1,0-4.023-3.995,3.931,3.931,0,0,0,4.023,3.995M49.1,8.071c1.343,0,2.685-.012,4.028.007.482.007.585-.16.44-.6A1.972,1.972,0,0,0,51.694,6.1q-2.9-.021-5.8,0c-1.435.007-1.284-.208-1.312,1.35-.009.509.2.64.672.632,1.283-.022,2.566-.007,3.85-.008m8.634,14.237c-1.026,0-1.026,0-1.026.672,0,.946.372,1.313,1.329,1.315.722,0,.722,0,.722-.959,0-1.028,0-1.028-1.026-1.028" transform="translate(0 0)" fill="url(#linear-gradient)"/>
    <path id="Path_697" data-name="Path 697" d="M150.908,87.924a1.021,1.021,0,0,1-.8-.372c-1.617-1.62-3.24-3.233-4.853-4.858a1,1,0,0,1-.127-1.517,1.019,1.019,0,0,1,1.526.064c1.286,1.252,2.562,2.517,3.811,3.806.359.37.559.383.932,0,2.522-2.556,5.07-5.087,7.61-7.625a4.492,4.492,0,0,1,.386-.367.993.993,0,0,1,1.466,1.312,3.736,3.736,0,0,1-.5.581q-4.161,4.168-8.329,8.33a1.557,1.557,0,0,1-1.124.643" transform="translate(-127.646 -67.704)" fill="url(#linear-gradient)"/>
    <path id="Path_698" data-name="Path 698" d="M212.759,223.723q-3.283,0-6.566,0a3.339,3.339,0,0,1-.647-.04,1.008,1.008,0,0,1,.082-2,4.431,4.431,0,0,1,.532-.014q6.625,0,13.249,0a2.727,2.727,0,0,1,.7.056,1,1,0,0,1,.088,1.9,2.131,2.131,0,0,1-.816.1h-6.625" transform="translate(-180.382 -195.349)" fill="url(#linear-gradient)"/>
    <path id="Path_699" data-name="Path 699" d="M24.1,187.647c1.953,0,3.905,0,5.858,0a1.068,1.068,0,0,1,1.135.67.975.975,0,0,1-.687,1.294,3.553,3.553,0,0,1-.878.085q-5.444.008-10.887,0a4.319,4.319,0,0,1-.707-.041A1,1,0,0,1,17,188.617a.987.987,0,0,1,1.061-.963c1.1-.018,2.209-.007,3.313-.008H24.1" transform="translate(-14.981 -165.367)" fill="url(#linear-gradient)"/>
    <path id="Path_700" data-name="Path 700" d="M129.8,259.862a2.047,2.047,0,0,1-2-2,2.075,2.075,0,0,1,2.015-2.063,2.114,2.114,0,0,1,2.047,2.043,2.078,2.078,0,0,1-2.059,2.02" transform="translate(-112.626 -225.432)" fill="url(#linear-gradient)"/>
    <path id="Path_701" data-name="Path 701" d="M411.362,259.862a2.066,2.066,0,0,1-2.023-2.053,2.034,2.034,0,0,1,4.069.024,2.065,2.065,0,0,1-2.046,2.029" transform="translate(-360.745 -225.433)" fill="url(#linear-gradient)"/>
  </g>
</svg>
